HIERARCHY
ROOT Hip
{
  OFFSET 0.0 0.0 0.0
  CHANNELS 6 Xposition Yposition Zposition Xrotation Yrotation Zrotation
  JOINT LowerSpine
  {
    OFFSET 0.0 0.061367 -0.03653
    CHANNELS 3 Xrotation Yrotation Zrotation
    JOINT MiddleSpine
    {
      OFFSET 0.0 0.056002 0.002633
      CHANNELS 3 Xrotation Yrotation Zrotation
      JOINT Chest
      {
        OFFSET 0.0 0.069296 -0.013882
        CHANNELS 3 Xrotation Yrotation Zrotation
        JOINT Neck
        {
          OFFSET 0.0 0.156156 -0.002923
          CHANNELS 3 Xrotation Yrotation Zrotation
          JOINT Head
          {
            OFFSET 0.0 0.088183 0.023986
            CHANNELS 3 Xrotation Yrotation Zrotation
            End Site
            {
              OFFSET 1e-06 0.123215 0.003678
            }
          }
        }
        JOINT LClavicle
        {
          OFFSET 0.014189 0.150698 0.046467
          CHANNELS 3 Xrotation Yrotation Zrotation
          JOINT LShoulder
          {
            OFFSET 0.082893 0.021616 -0.034976
            CHANNELS 3 Xrotation Yrotation Zrotation
            JOINT LForearm
            {
              OFFSET 0.195645 -0.000695 -0.001695
              CHANNELS 3 Xrotation Yrotation Zrotation
              JOINT LHand
              {
                OFFSET 0.163209 0.000474 -0.000977
                CHANNELS 3 Xrotation Yrotation Zrotation
                End Site
                {
                  OFFSET 0.0 0.006864 0.0
                }
              }
            }
          }
        }
        JOINT RClavicle
        {
          OFFSET -0.014189 0.150698 0.046467
          CHANNELS 3 Xrotation Yrotation Zrotation
          JOINT RShoulder
          {
            OFFSET -0.082908 0.021619 -0.034982
            CHANNELS 3 Xrotation Yrotation Zrotation
            JOINT RForearm
            {
              OFFSET -0.195645 -0.000695 -0.001695
              CHANNELS 3 Xrotation Yrotation Zrotation
              JOINT RHand
              {
                OFFSET -0.163209 0.000474 -0.000977
                CHANNELS 3 Xrotation Yrotation Zrotation
                End Site
                {
                  OFFSET 0.0 0.006864 0.0
                }
              }
            }
          }
        }
      }
    }
  }
  JOINT RThigh
  {
    OFFSET -0.072558 0.02774 -0.005953
    CHANNELS 3 Xrotation Yrotation Zrotation
    JOINT RShin
    {
      OFFSET -0.005253 -0.285537 0.0
      CHANNELS 3 Xrotation Yrotation Zrotation
      JOINT RFoot
      {
        OFFSET 0.0 -0.28038 0.0
        CHANNELS 3 Xrotation Yrotation Zrotation
        JOINT RToe
        {
          OFFSET 0.0 -0.030816 0.064441
          CHANNELS 3 Xrotation Yrotation Zrotation
          End Site
          {
            OFFSET 0.0 0.0 0.043231
          }
        }
      }
    }
  }
  JOINT LThigh
  {
    OFFSET 0.072557 0.027741 -0.005953
    CHANNELS 3 Xrotation Yrotation Zrotation
    JOINT LShin
    {
      OFFSET 0.005253 -0.285539 0.0
      CHANNELS 3 Xrotation Yrotation Zrotation
      JOINT LFoot
      {
        OFFSET 0.0 -0.28038 0.0
        CHANNELS 3 Xrotation Yrotation Zrotation
        JOINT LToe
        {
          OFFSET 0.0 -0.030816 0.064441
          CHANNELS 3 Xrotation Yrotation Zrotation
          End Site
          {
            OFFSET 0.0 0.0 0.043231
          }
        }
      }
    }
  }
}
MOTION
Frames: 18
Frame Time: 0.03333333333333333
-0.021149 0.57778 -0.009174 5.713114 -0.32278 -1.664059 -0.400315 -0.140952 -0.33685 -0.36863 1.414622 -0.119391 -4.369422 2.636009 -0.217581 -1.73107 0.182452 0.115846 0.067815 -0.089125 -0.015766 -0.653623 -1.17426 -9.648962 24.047522 -19.491291 -46.858547 11.214709 -31.010887 0.263711 0.180197 0.224915 -0.125024 -1.233477 0.643313 10.541945 18.176476 20.263479 47.896168 8.90634 26.675604 -1.026279 0.098588 -0.295519 -0.014498 -11.777894 -2.494629 -3.98098 11.162366 -3.65032 3.040217 -1.896555 1.662588 0.425885 0.109573 0.566923 0.093584 -6.325309 6.698919 9.038586 7.203913 7.019038 -4.910483 -2.165052 -0.3776 0.039951 0.066791 -0.178028 -0.087946 
-0.011648 0.577762 -0.0167 5.338993 -0.162533 -2.127395 0.056972 -0.171859 -0.058152 -0.943197 1.168172 0.385155 -3.724068 2.363189 0.824921 -0.96817 0.22869 -0.298872 0.045881 -0.137732 -0.065631 -0.58026 -1.76497 -9.874469 21.973568 -18.143116 -47.733467 10.083878 -31.331293 2.02341 0.127138 0.184978 -0.137392 -1.438071 0.878789 9.780633 16.627838 16.057909 47.549809 8.332456 28.397587 -2.230297 -0.063743 -0.267469 -0.016077 -12.532269 -3.770581 -5.099875 11.959918 -4.698233 3.570554 -0.773262 1.235912 0.122905 0.017127 0.438845 0.132586 -6.098177 6.503347 7.113258 6.451478 5.703429 -3.874469 -2.178674 -0.468768 0.287123 0.07226 -0.186447 -0.049931 
-0.009776 0.580879 -0.017371 5.580241 1.66527 -2.337274 -0.028126 -0.249756 -0.205651 -0.892538 1.089331 0.451337 -3.949306 1.418477 1.232543 -0.917948 0.24527 -0.423068 0.039367 -0.094162 -0.061615 -0.407053 -1.597118 -10.439787 22.039221 -17.008078 -47.744228 8.833348 -31.342831 1.625826 0.098919 0.159083 -0.128956 -1.178699 0.693184 9.554016 16.61343 11.837509 46.447327 6.543189 33.802822 -2.519094 -0.04892 -0.25956 -0.016087 -12.515639 -5.461622 -5.765803 10.20476 -5.262201 3.753833 -0.398775 1.42127 0.190997 0.034355 0.412966 0.112565 -6.156052 5.24035 6.067253 6.368722 4.920437 -2.800434 -2.448352 -0.322424 0.304598 0.070361 -0.141987 -0.029078 
-0.009942 0.584813 -0.016122 5.210326 2.106172 -2.508881 -0.114364 -0.304182 -0.231632 -0.802791 1.100062 0.463715 -3.536656 1.410585 1.386309 -0.831829 0.274442 -0.485184 0.041674 -0.105289 -0.059765 -0.343689 -1.387355 -11.206689 21.092846 -15.921262 -48.620556 7.165906 -29.825178 1.031359 0.095373 0.157692 -0.130134 -0.960319 0.360546 9.321036 13.187382 8.55948 46.211681 2.775864 38.628971 -3.150657 -0.037234 -0.257227 -0.018043 -11.280526 -5.417244 -5.087742 8.317353 -4.933886 3.371787 -0.507299 1.472012 0.194342 0.042353 0.405571 0.119095 -5.0351 4.02374 5.412456 5.832226 3.992461 -1.849447 -2.833261 0.031284 0.477345 0.073098 -0.119558 -0.023996 
-0.011847 0.585206 -0.014715 4.861536 1.935499 -2.647663 -0.29929 -0.34705 -0.222216 -0.733728 1.163778 0.456602 -3.018841 1.501181 1.49486 -0.843079 0.278307 -0.5189 0.043439 -0.10047 -0.05091 -0.275044 -1.147373 -12.020514 20.364786 -15.403197 -49.720631 6.001462 -28.396143 0.441754 0.090581 0.161672 -0.118759 -0.738958 -0.018523 9.087309 8.537841 6.427711 45.74741 -1.371599 43.385979 -4.379277 -0.014767 -0.262952 -0.018598 -9.807275 -4.541589 -4.182491 6.143676 -4.317227 2.938885 -0.765208 1.515611 0.227559 0.058476 0.40726 0.113962 -3.854009 2.665538 4.847197 4.692821 3.193709 -1.233835 -3.148012 0.389633 0.646004 0.079258 -0.105057 -0.020651 
-0.010932 0.583753 -0.012419 4.712339 1.40777 -2.674684 -0.47275 -0.340898 -0.184991 -0.646303 1.199205 0.440435 -2.729528 1.334808 1.599322 -0.872067 0.251927 -0.544463 0.041958 -0.08266 -0.04008 -0.168063 -0.840597 -12.834152 19.682335 -15.214419 -50.898003 5.364596 -26.582182 -0.177761 0.082911 0.152344 -0.101209 -0.485849 -0.473346 8.744096 3.570064 5.365147 44.588505 -6.123318 48.982235 -5.461605 0.022604 -0.262497 -0.013727 -7.970266 -3.568423 -3.600224 4.044261 -3.656482 2.455751 -1.050546 1.503347 0.288072 0.074684 0.403116 0.103401 -2.712594 1.40717 4.384892 3.55546 2.652697 -0.62487 -3.385059 0.757369 0.793344 0.081425 -0.087522 -0.015697 
-0.007729 0.581648 -0.011096 4.616599 1.045793 -2.556124 -0.663457 -0.292032 -0.125236 -0.554795 1.194417 0.393841 -2.588389 0.975638 1.750223 -0.885205 0.187334 -0.554559 0.034857 -0.052954 -0.0234 -0.165885 -0.499566 -13.792085 19.129877 -15.183072 -52.272186 5.120748 -24.476086 -0.78588 0.066111 0.121813 -0.068236 -0.249427 -0.763467 8.553973 -1.039923 4.351246 43.383526 -11.775656 56.460308 -6.181661 0.053433 -0.231277 -0.005915 -6.476741 -2.853428 -3.449836 2.636625 -2.957756 1.844508 -1.284798 1.434788 0.38051 0.088198 0.352057 0.081788 -1.425146 0.613919 3.822181 2.251366 2.367837 -0.086649 -3.604996 1.185127 0.941532 0.068049 -0.051704 -0.003021 
-0.002026 0.576394 -0.007757 4.32143 0.571602 -2.452661 -0.92364 -0.18366 -0.020567 -0.411031 1.191983 0.281943 -2.157331 0.37018 1.907418 -1.008434 0.099762 -0.57545 0.020624 -0.010914 -0.006623 -0.250398 -0.203179 -15.072851 18.566128 -14.881178 -54.124878 4.57234 -22.042526 -1.504395 0.040534 0.077385 -0.028474 0.056252 -0.930981 8.30221 -6.083757 3.747297 41.012115 -18.365887 67.064003 -6.752671 0.085116 -0.186577 0.002224 -4.648667 -2.018047 -3.452136 0.985125 -2.082359 1.141545 -1.607744 1.343452 0.51498 0.103002 0.261063 0.046516 0.038727 -0.068339 3.236262 1.2888 2.278218 0.398125 -3.8875 1.744269 1.122308 0.044657 -0.004977 0.015626 
0.003303 0.570683 -0.000395 3.789583 -0.127774 -2.466926 -1.208653 -0.085761 0.119854 -0.254062 1.141606 0.192549 -1.746246 -0.200356 1.947793 -1.237142 0.018242 -0.566314 0.01156 0.018212 0.005038 -0.453603 -0.093949 -16.254107 18.519882 -14.51022 -56.050404 3.886528 -19.881498 -2.064911 0.017005 0.03867 0.00136 0.381256 -0.96794 8.006685 -10.870009 3.247117 38.018734 -24.243771 77.799622 -7.579329 0.091205 -0.139819 0.004357 -2.892396 -1.210935 -3.259441 -0.371288 -1.106547 0.417991 -1.793075 1.35851 0.66273 0.110251 0.172814 0.01521 1.66577 -0.510703 2.751369 0.700928 2.323181 0.782949 -4.271123 2.310243 1.323112 0.020616 0.038007 0.033124 
0.007239 0.570837 0.005005 3.602725 -0.59226 -2.700938 -1.475144 -0.067674 0.263508 -0.165587 1.125255 0.187812 -1.332973 -0.414261 1.852967 -1.436903 -0.028854 -0.523486 0.006206 0.018432 0.013464 -0.583075 -0.142221 -17.308754 18.649578 -14.889502 -57.323463 3.622904 -18.326946 -2.399328 0.000585 0.015827 0.021243 0.608604 -0.951747 7.865075 -14.535833 3.679942 35.721664 -27.60022 83.022057 -7.493728 0.051687 -0.091873 0.000918 -2.014148 -0.619294 -3.099782 -0.800098 -0.516657 -0.149008 -1.843767 1.291381 0.693525 0.102942 0.106082 0.000332 2.680068 -0.387196 2.511413 0.45045 2.556794 0.943817 -4.576998 2.704747 1.516844 0.00492 0.060107 0.038715 
0.011456 0.571728 0.009698 3.462742 -0.855979 -3.000427 -1.765505 -0.063414 0.415971 -0.079954 1.124165 0.204681 -1.100491 -0.55935 1.68044 -1.649316 -0.065216 -0.484345 0.002047 0.008692 0.021075 -0.724013 -0.169353 -18.333509 18.896366 -15.159248 -58.312305 3.253113 -17.096651 -2.729332 -0.013479 -0.003286 0.036718 0.828951 -0.974031 7.64471 -17.77746 4.228464 33.497486 -30.356955 86.968941 -7.082599 -0.002066 -0.046302 -0.005658 -1.388728 -0.393588 -3.014904 -0.857922 -0.152206 -0.712177 -1.825379 1.209637 0.708207 0.090003 0.04797 -0.009499 3.464072 -0.205793 2.248635 0.25436 2.722292 1.046088 -4.809905 3.073027 1.719359 -0.007548 0.0735 0.039482 
0.015719 0.573079 0.012955 3.218372 -1.034044 -3.293365 -2.010099 -0.072884 0.579779 -0.009412 1.159277 0.262478 -0.873424 -0.537628 1.556647 -1.841425 -0.080834 -0.441257 0.002222 -0.022037 0.025707 -0.884484 -0.313588 -19.25057 19.230806 -15.447511 -59.134598 2.988161 -16.220381 -2.962809 -0.018917 -0.00849 0.040773 0.970674 -0.981547 7.418522 -20.452747 4.679494 31.493141 131.341644 89.704582 -170.345535 -0.063612 -0.010037 -0.01421 -0.833315 -0.198254 -2.963395 -0.885247 0.102628 -1.198216 -1.801704 1.130975 0.687361 0.073064 0.016271 -0.008386 4.133874 -0.024576 1.99834 0.079059 2.730723 1.071487 -5.000751 3.36095 1.908825 -0.011277 0.07243 0.034161 
0.019893 0.574401 0.013614 2.99524 -0.979286 -3.502587 -2.178334 -0.107068 0.712177 0.038924 1.16753 0.326957 -0.86172 -0.431621 1.393612 -1.960561 -0.078389 -0.398275 0.002316 -0.055995 0.028177 -1.027947 -0.435852 -19.926435 19.421652 -15.700052 -59.709946 2.72577 -15.325721 -3.121298 -0.022032 -0.011027 0.041702 1.048612 -0.91394 7.113277 -22.771049 5.656882 29.937614 145.568283 87.90062 174.589386 -0.110562 0.012599 -0.020716 -0.389475 0.037223 -3.01169 -0.863036 0.278836 -1.546757 -1.799027 1.05866 0.645013 0.054609 -0.002179 -0.003465 4.497032 0.187808 1.770605 -0.06818 2.682643 1.05835 -5.14209 3.560141 2.054716 -0.012725 0.072259 0.030492 
0.023953 0.575115 0.01291 2.916306 -0.84487 -3.609813 -2.322634 -0.13979 0.816127 0.064768 1.201077 0.386803 -0.976228 -0.297256 1.239159 -2.068285 -0.065654 -0.376637 0.003664 -0.09197 0.025924 -1.118156 -0.516966 -20.429802 19.589588 -16.054375 -60.043423 2.650632 -14.596557 -3.184273 -0.022236 -0.008965 0.039023 1.085747 -0.90075 6.766346 -24.684669 6.919228 28.55501 146.301453 86.800468 173.572205 -0.150046 0.022103 -0.026408 -0.133394 0.172172 -3.157535 -0.896738 0.320545 -1.748758 -1.78385 1.006989 0.597511 0.037326 -0.002569 0.005346 4.633239 0.374616 1.552445 -0.210908 2.608278 1.035949 -5.259615 3.691542 2.164019 -0.008634 0.063618 0.024677 
0.027558 0.575908 0.011623 2.757922 -0.808081 -3.699975 -2.42399 -0.167358 0.895746 0.101354 1.25459 0.444344 -1.031266 -0.134167 1.11508 -2.159785 -0.045413 -0.360889 0.006411 -0.123986 0.022397 -1.177566 -0.599828 -20.812429 19.676849 -16.369972 -60.235233 2.592733 -14.104123 -3.1814 -0.018474 -0.001157 0.032453 1.099568 -0.897069 6.447299 -25.933516 7.934029 27.562424 146.397873 86.081184 173.441284 -0.182864 0.022851 -0.031065 -0.01996 0.166933 -3.307318 -0.856179 0.251115 -1.865496 -1.737696 0.98387 0.563378 0.026026 0.006938 0.014813 4.751705 0.577396 1.385009 -0.320459 2.533787 0.993991 -5.334369 3.739759 2.240324 -0.000265 0.05016 0.017667 
0.030467 0.57685 0.010288 2.647022 -0.747405 -3.757379 -2.522653 -0.191021 0.956198 0.143667 1.308378 0.500347 -1.127497 0.015642 0.978088 -2.259812 -0.030924 -0.349913 0.009781 -0.151567 0.019119 -1.216938 -0.658019 -21.125746 19.730246 -16.557432 -60.347534 2.538227 -13.878422 -3.143415 -0.012393 0.009757 0.023793 1.1008 -0.914767 6.218833 -26.918955 8.648108 26.828321 146.471664 86.003548 173.414642 -0.208963 0.018973 -0.035463 -0.03438 0.085377 -3.431287 -0.798813 0.142016 -1.954805 -1.672156 0.969542 0.540244 0.017368 0.021893 0.023624 4.769923 0.772659 1.171393 -0.409537 2.467903 0.955818 -5.369227 3.748111 2.294849 0.007922 0.036384 0.011317 
0.032715 0.577966 0.009735 2.61086 -0.727302 -3.821561 -2.614911 -0.211631 1.006555 0.173527 1.354646 0.565611 -1.268607 0.110383 0.896321 -2.367635 -0.020595 -0.342167 0.013629 -0.175846 0.015248 -1.244532 -0.710271 -21.415785 19.75639 -16.59288 -60.498531 2.464864 -13.806583 -3.111068 -0.005214 0.021757 0.013691 1.095112 -0.965016 6.066255 -27.761356 9.013325 26.203461 146.52063 86.270958 173.340271 -0.229236 0.00946 -0.039726 -0.090303 -0.09366 -3.535622 -0.779551 -0.026208 -2.014226 -1.585571 0.958931 0.51724 0.00989 0.041651 0.032024 4.669264 0.858443 0.922652 -0.46417 2.360281 0.91243 -5.38137 3.755813 2.344258 0.017 0.021859 0.005423 
0.034205 0.579121 0.009742 2.618214 -0.745816 -3.889234 -2.68131 -0.231982 1.047291 0.182386 1.38485 0.634403 -1.433812 0.200818 0.850836 -2.47526 -0.012152 -0.332034 0.018277 -0.197252 0.01089 -1.280066 -0.787536 -21.650888 19.742208 -16.467403 -60.679962 2.391868 -13.899367 -3.070649 0.003351 0.035279 0.001477 1.075498 -1.033244 5.924877 -28.686514 9.096495 25.662239 146.639297 87.060547 173.089615 -0.247764 -0.002016 -0.044152 -0.189725 -0.318363 -3.587207 -0.77506 -0.225935 -2.042011 -1.504034 0.968814 0.49186 0.000434 0.062573 0.041444 4.515955 0.896143 0.690868 -0.494564 2.251681 0.889034 -5.384659 3.764373 2.384619 0.026448 0.006052 -0.000428 
